<?xml version="1.0" encoding="utf-8"?>
<!-- Generator: Adobe Illustrator 23.1.0, SVG Export Plug-In . SVG Version: 6.00 Build 0)  -->
<svg version="1.1" id="Layer_1" xmlns="http://www.w3.org/2000/svg" xmlns:xlink="http://www.w3.org/1999/xlink" x="0px" y="0px"
	 viewBox="0 0 512 512" enable-background="new 0 0 512 512" xml:space="preserve">
<g>
	<g>
		<path fill="#F47621" d="M345,429.4c-27.4-4.8-61.4-7.7-98.3-7.7c-36.9,0-70.9,2.9-98.3,7.7H82.6v30.9c0,21.3,73.5,38.6,164.2,38.6
			c90.7,0,164.2-17.3,164.2-38.6v-30.9H345z"/>
		<ellipse fill="#FEDCBB" cx="246.7" cy="429.4" rx="164.2" ry="38.6"/>
		<path fill="#8B411E" d="M229.9,483.4c0-3.1,1.1-5.6,2.4-5.6s2.4,2.5,2.4,5.6c0,3.1-1.1,5.6-2.4,5.6S229.9,486.5,229.9,483.4z"/>
		<path fill="#8B411E" d="M187.2,480.4c0-3.1,1.1-5.6,2.4-5.6s2.4,2.5,2.4,5.6c0,3.1-1.1,5.6-2.4,5.6S187.2,483.5,187.2,480.4z"/>
		<path fill="#8B411E" d="M149.9,476.8c0-3.1,1.1-5.6,2.4-5.6c1.3,0,2.4,2.5,2.4,5.6c0,3.1-1.1,5.6-2.4,5.6
			C150.9,482.3,149.9,479.8,149.9,476.8z"/>
		<ellipse fill="#8B411E" cx="121.4" cy="469.5" rx="2.4" ry="5.6"/>
		<path fill="#8B411E" d="M269.9,483.4c0-3.1,1.1-5.6,2.4-5.6c1.3,0,2.4,2.5,2.4,5.6c0,3.1-1.1,5.6-2.4,5.6
			C270.9,489,269.9,486.5,269.9,483.4z"/>
		<ellipse fill="#8B411E" cx="308.7" cy="480.9" rx="2.4" ry="5.6"/>
		<path fill="#8B411E" d="M337.7,476.8c0-3.1,1.1-5.6,2.4-5.6c1.3,0,2.4,2.5,2.4,5.6c0,3.1-1.1,5.6-2.4,5.6
			C338.8,482.3,337.7,479.8,337.7,476.8z"/>
		<ellipse fill="#8B411E" cx="374.8" cy="468" rx="2.4" ry="5.6"/>
		<path fill="#8B411E" d="M398.9,456.9c0-3.1,0.8-5.6,1.9-5.6c1,0,1.9,2.5,1.9,5.6c0,3.1-0.8,5.6-1.9,5.6
			C399.7,462.4,398.9,459.9,398.9,456.9z"/>
		<path fill="#8B411E" d="M94.8,460.3c0-3.1,0.8-5.6,1.9-5.6s1.9,2.5,1.9,5.6c0,3.1-0.8,5.6-1.9,5.6S94.8,463.4,94.8,460.3z"/>
	</g>
	<g>
		<polygon opacity="0.5" fill="#FFFFFF" points="408.5,412 324.9,212.1 300.8,322.7 376,418.1 		"/>
		<g>
			<path fill="#19488D" d="M395.2,430.6c-9,1.7-17.5-3.6-19.1-11.8l32.5-6.1C410.2,420.9,404.2,428.9,395.2,430.6z"/>
			<path fill="#FEE9DC" d="M376,418.1c0.8,4.5,8.8,6.8,17.8,5.1c9-1.7,15.6-6.7,14.7-11.2c-0.8-4.5-8.8-6.8-17.8-5.1
				C381.8,408.6,375.2,413.6,376,418.1z"/>
		</g>
	</g>
	<g>
		<polygon opacity="0.5" fill="#FFFFFF" points="90.3,408.6 245.9,138.8 278.9,204.5 121.3,414.1 		"/>
		<g>
			<path fill="#19488D" d="M103.6,425.6c9,1.7,17.5-3.6,19.1-11.8l-32.5-6.1C88.6,415.8,94.6,423.9,103.6,425.6z"/>
			<path fill="#FEE9DC" d="M122.8,413c-0.8,4.5-8.8,6.8-17.8,5.1c-9-1.7-15.6-6.7-14.7-11.2c0.8-4.5,8.8-6.8,17.8-5.1
				C117.1,403.5,123.7,408.5,122.8,413z"/>
		</g>
	</g>
	<g>
		<path fill="#B0C0E3" d="M264.8,76.4c0,0-18.4,3.2-22.5,14.1c-4.2,10.8-25.4,157-25.4,157s13.9,8.6,38.8,5.3
			C280.6,249.4,264.8,76.4,264.8,76.4z"/>
		<path fill="#1E3966" d="M237.5,421.3c-0.1,3.1-0.6,8.1-1.8,9.3h-45.4c0.6-1.7,2.2-6.2,6.9-6.9c5.3-0.9,13.6-3.4,18.5-8.5
			c1.7-1.8,3-4,3.6-6.5c2.1-9.6,17.7,2.9,17.7,2.9S237.6,416.6,237.5,421.3z"/>
		<path fill="#1E3966" d="M306.3,421.3c-0.1,3.1-0.6,8.1-1.8,9.3h-45.4c0.6-1.7,2.2-6.2,6.9-6.9c5.3-0.9,13.6-3.4,18.5-8.5
			c1.7-1.8,3-4,3.6-6.5c2.1-9.6,17.7,2.9,17.7,2.9S306.4,416.6,306.3,421.3z"/>
		<path fill="#F47621" d="M217.8,416.7c5.1,1.6,14.8,6.6,21,4.3c4-1.5,26.4-66.2,27.8-94.4c0.1-2.1,0.5-4.9,1.1-8.4
			c1.3-7.3,3.6-17.3,6.3-28.4c7.2-29.7,16.8-66.8,16.6-78.6c-0.3-18.4-54.8-3.9-54.8-3.9s-3.8,15.1-4.5,37
			c-1.5,43.4-5.6,116.7-16.6,167.6C214.3,413.9,215.7,416,217.8,416.7z"/>
		<path fill="#F79134" d="M255.7,211.1l24.6,207.4c0,0,16.9,4.5,26.8,2.1c0,0,8.4-111.1,7.7-138c-0.7-26.9,6.1-71.9-1.5-76.8
			C305.6,200.8,255.7,211.1,255.7,211.1z"/>
		<path fill="#FFFFFF" d="M316.8,86c0,0-30.3-19.6-52-9.6c-3.5,1.6-7.4,6-10.2,9.2c-7.9,8.7-18.7,121.6-18.7,121.6s36,14.2,77.9-5.6
			L316.8,86z"/>
		<path fill="#B0C0E3" d="M264.8,76.4c0,0-27.4,6.4-31.5,16c-4.2,9.7-31.6,55.9-23.9,75.9c2.5,6.5,24.7,7.2,28.5-4
			C241.1,155.1,264.8,76.4,264.8,76.4z"/>
		<g>
			<path fill="#FAAB77" d="M269.5,85.5c6.7,1.3,16.5-0.1,23.7-4.8c-3.3-7.8-4.6-13.9-5.1-17.9c0-0.2,0-0.4-0.1-0.6
				c-0.2-2.1-0.2-3.5-0.1-4.1h-17.3c0,0-4.7,2.2-4.7,3.7c0,0.8,0,1.6,0,2.3c0,2-0.1,3.7-0.2,5.2c-0.3,4.9-0.9,7.1-0.9,7.1
				S262.7,84.2,269.5,85.5z"/>
			<path fill="#EE8D4D" d="M265.7,69.3c13.1,2.5,20.7-4.6,22.4-6.5c0.2-0.3,0.4-0.4,0.4-0.4c-0.1-0.1-0.3-0.1-0.4-0.2
				c-4.9-2-16-0.4-22.1,1.9C265.9,66,265.8,67.8,265.7,69.3z"/>
			<path fill="#FAAB77" d="M292.4,55.2c-2.3,12.6-18.6,12.2-25.6,11.4c-2-0.2-3.2-0.5-3.2-0.5c-2.2-0.6-3.5-4.1-4.1-8.7
				c-1.1-9.1,0.3-22.5,1.8-25.9c2.3-5.1,6.7-10.7,23.1-6.7C300.8,28.9,295.4,39.1,292.4,55.2z"/>
			<path fill="#1E3966" d="M260.7,24.5c2.2-3.1,7-6.9,11.3-9.2c9.3-5,21.1,0.2,21.2,0.2c13.4,5.9,16.9,16.1,9.8,32.1
				c-7.5,16.9-14.6,15-14.6,15s1.5-0.9,1.4-6.2c0-0.3,0-0.5,0-0.8c-0.1-1.1,0.3-2.2,1.1-2.9c1.7-1.5,2.5-6,1.1-7.2
				c-1.7-1.5-4,0.3-4.8,1.7c-0.7,1-1.8,1.3-2.9,0.6c-4.2-2.6-1.5-7.9-5.4-11.1c-4-3.2-12.1-0.5-18-3.1
				C252.9,30.7,259,26.9,260.7,24.5z"/>
		</g>
		<path fill="#B0C0E3" d="M274.1,253.5c2.6,0.7,17.6,6.5,50.7,2.3c0.4-0.1-0.4-12.6-2-54.2c-0.2-4.3-0.3-8.6-0.5-12.9
			c-0.1-1.8-0.1-3.6-0.2-5.4c-1.5-36.7-2.9-69.9-3.2-71.7c-0.7-4-1.3-7.5-2.1-10.5c-2.1-8.7-4.6-13.5-10.3-17.6
			c-0.5-0.4-5-2.7-9-4.6c-3.3-1.6-6.2-3.1-6.2-3.1c0,0,0,0,0,0c-1.3,0.6-2.9,3.6-4.5,7.8c-3,7.7-6.3,19.6-8.5,28.4c0,0,0,0,0,0
			c0,0,0,0,0,0c-1.5,5.7-2.5,10.2-2.8,11.4c-0.5,2.2-1.2,6.3-2,12c-1.1,7.7-2.3,18.2-3.7,30c-0.1,1.2-0.3,2.5-0.4,3.7
			C269.3,170.8,273.9,251.1,274.1,253.5z"/>
		<path fill="#A0AED9" d="M303.6,126.5c0,0.1,1.1,37.1-26.8,41.6c-27.9,4.5-9.3,5.7-9.3,5.7s52.4-2.2,53.3-3.6
			S303.6,126.5,303.6,126.5z"/>
		<path fill="#A0AED9" d="M280,184c0,0,0.5,0.4,1.5,1c0,0,0,0,0.1,0c4.3,2.7,16.9,10.1,35.2,15.1c1.9,0.5,3.9,1,6,1.5
			c-0.2-4.3-0.3-8.6-0.5-12.9c2.4-0.2,4.7-0.5,6.9-1c-0.1-0.6-0.1-1.1-0.2-1.7c-2.3-1-4.7-1.9-6.9-2.8c-1.8-0.7-3.6-1.4-5.3-2
			c-7.5-2.9-13.1-4.8-13.1-4.8l-22.3,7.1L280,184z"/>
		<path fill="#B0C0E3" d="M274.1,183.4c0,0,2.9,0.7,7.4,1.6c0,0,0,0,0,0c8.4,1.7,22.6,4.1,35.2,3.9c1.9,0,3.7-0.1,5.5-0.2
			c2.4-0.2,4.7-0.5,6.9-1c4.6-1,8.5-2.6,11-5.2c18.8-19.2-10.3-88-16.4-94.7c-7.1-7.8-20.2-10.6-27.4-11.5c-0.3,0-0.6-0.1-0.9-0.1
			c-2.5-0.3-4.2-0.4-4.2-0.4c0,0,0,0,0,0s0.6,1.8,1.5,4.9c0.4,1.2,0.8,2.6,1.3,4.1c4.4,14.5,12.9,42.9,16.7,59
			c1.4,5.9,2.1,10.1,1.8,11.3c-1.5,5.5-16.7,8.3-26.3,9.5c-4,0.5-7.1,0.8-7.7,0.8c0,0-0.1,0-0.1,0l-0.6,2.3l-1.3,5.5l-1.3,5.4
			L274.1,183.4z"/>
		<path fill="#FFFFFF" d="M270.7,58.1c0,0-2.1,2-5.6,1.3c-2.1-0.4-3.2-3-3.2-3S265.8,55.7,270.7,58.1z"/>
		<path fill="#A0AED9" d="M290.1,72l10.7,5.1l-14.1,38l-5-1l1.4,4.7l-9.9,20C273.1,138.8,279.4,92.2,290.1,72z"/>
		<polygon fill="#A0AED9" points="265.5,71.5 264.8,76.4 248.3,130.9 247.6,113.9 249.6,111.5 246.7,106.9 257.5,78.4 		"/>
		<path fill="#FFFFFF" d="M289.1,68.3c0-0.1-17.3,13.9-17.3,13.9l-6.3-10.8l-2.2,10.7l5.3,4h2.3c0,0,12.5,2.8,12.8,2.3
			c0.3-0.5,6.4-16.5,6.4-16.5L289.1,68.3z"/>
		<g>
			<path fill="#F79134" d="M270.4,83.2c0,0,14.1-7,14.6-5.9c0.5,1.2,0.4,13.2-1.2,13.7C282.1,91.5,270.4,83.2,270.4,83.2z"/>
			<path fill="#F79134" d="M271.6,82.8c0,0-5.6-9.1-7.4-7.9c-1.8,1.2-3,12.7-1.4,13.1C264.5,88.3,270.8,84.4,271.6,82.8z"/>
			<circle fill="#F79134" cx="271.3" cy="83.2" r="2.3"/>
		</g>
		<path fill="#1E3966" d="M265.5,100.9c0-0.4,0.4-0.8,0.8-0.8c0.4,0,0.8,0.4,0.8,0.8c0,0.4-0.4,0.8-0.8,0.8
			C265.9,101.7,265.5,101.3,265.5,100.9z"/>
		<path fill="#1E3966" d="M262.5,115c0-0.4,0.4-0.8,0.8-0.8c0.4,0,0.8,0.4,0.8,0.8c0,0.4-0.4,0.8-0.8,0.8
			C262.9,115.8,262.5,115.4,262.5,115z"/>
		<path fill="#1E3966" d="M259.8,129.8c0-0.4,0.4-0.8,0.8-0.8c0.4,0,0.8,0.4,0.8,0.8c0,0.4-0.4,0.8-0.8,0.8
			C260.1,130.6,259.8,130.3,259.8,129.8z"/>
		<path fill="#FAAB77" d="M279,165.7c0,0-3.1-1.9-4.3-2.7c-1.2-0.8-2.2-1.5-2.2-1.5l0.2,2.1l2.4,3.5L279,165.7z"/>
		<path fill="#FAAB77" d="M278.4,165.6c0,0-12.6-0.9-13.2,2.1c-1.5,6.8,10.8,12.4,14.8,12.1C284,179.4,281.3,165.2,278.4,165.6z"/>
		<g>
			<path fill="#FAAB77" d="M215.5,152.1c0.3,0,8.5-6.6,8.5-4.7c0,1.8-3.6,5.3-3.6,5.3L215.5,152.1z"/>
			<path fill="#FAAB77" d="M215.4,151.9c0,0,12-3.8,13.3-1.1c3,6.3-7.6,14.6-11.6,15.2C213.2,166.6,212.5,152.1,215.4,151.9z"/>
		</g>
	</g>
</g>
</svg>
